# xmcd
#
# Track frame offsets:
#	150
#	23872
#	38359
#	50323
#	71313
#	88481
#	110194
#	126331
#	141095
#	150488
#	173082
#	193636
#	209762
#	230575
#	262294
#	278659
#	300915
#	320616
#
# Disc length: 4501 seconds
#
# Revision: 1
# Processed by: cddbd v1.5.2PL0 Copyright (c) Steve Scherf et al.
# Submitted via: audiograbber 1.83.01
#
DISCID=05119312
DTITLE=Various Artist - Let's go dancing
DYEAR=198
DGENRE=Disco
TTITLE0=Tavares - Heaven must be missing an angel
TTITLE1=Sister Sledge - We are family
TTITLE2=Chic - He's the greatest dancer
TTITLE3=Kool and the gang - Celebration
TTITLE4=Donna Summer - Na Na Hey Hey
TTITLE5=Heatwave - Always and forever
TTITLE6=Sinitta - Shame shame shame
TTITLE7=Detroit Emeralds - Feel the need in me
TTITLE8=Chic - Upside down
TTITLE9=Gloria Gaynor - Never can say goodbye
TTITLE10=Level 42 - Lessons in love
TTITLE11=Limahl - Too shy
TTITLE12=Kool and the gang - Ooh la la la (let's go dancing)
TTITLE13=Chic - Dance dance dance
TTITLE14=Sinitta - Toyboy
TTITLE15=Rose Royce - Car wash
TTITLE16=Starship - Nothings gonna stop us now
TTITLE17=Kool and the gang - Ladies night
EXTD=
EXTT0=
EXTT1=
EXTT2=
EXTT3=
EXTT4=
EXTT5=
EXTT6=
EXTT7=
EXTT8=
EXTT9=
EXTT10=
EXTT11=
EXTT12=
EXTT13=
EXTT14=
EXTT15=
EXTT16=
EXTT17=
PLAYORDER=
